# xmcd CD database file
#
# Track frame offsets:
#	150
#	24427
#	53835
#	86985
#	129288
#
# Disc length: 1940 seconds
#
# Revision: 2
# Processed by: cddbd v1.5.2PL0 Copyright (c) Steve Scherf et al.
# Submitted via: CDex 1.70beta3
#
DISCID=38079205
DTITLE=Innocent Grey - PP -ピアニッシモ- 操リ人形ノ輪舞 SPECIAL DISC -Unendliche Melodie-
DYEAR=2006
DGENRE=Game
TTITLE0=霜月はるか - 蝶
TTITLE1=霜月はるか - Distance
TTITLE2=スペシャルCDドラマ カデンツァの夜明け(男性編)
TTITLE3=スペシャルCDドラマ カデンツァの夜明け(女性編)
TTITLE4=DataTrack
EXTD=YEAR: 2006
EXTT0=
EXTT1=
EXTT2=
EXTT3=
EXTT4=
PLAYORDER=
